<svg xmlns="http://www.w3.org/2000/svg" width="512" height="512" viewBox="0 0 512 512" version="1.1"><path d="M 374 59.072 C 343.744 62.386, 314.589 69.375, 249 89.039 C 182.486 108.980, 146.648 116, 111.355 116 C 77.555 116, 48.457 109.212, 19.457 94.562 L 4.994 87.256 5.247 256.275 L 5.500 425.294 13 429.411 C 30.137 438.819, 46.762 445.063, 66.209 449.398 C 83.278 453.202, 97.719 454.365, 119.447 453.685 C 155.635 452.552, 182.158 447.015, 254.500 425.490 C 309.308 409.183, 332.748 403.227, 356.500 399.573 C 409.599 391.403, 452.039 396.976, 492.540 417.436 L 507 424.741 507 255.891 L 507 87.040 501.750 83.993 C 482.830 73.010, 460.057 64.909, 435.500 60.428 C 424.816 58.479, 387.026 57.646, 374 59.072 M 384.500 62.668 C 350.767 65.465, 320.541 72.076, 264 89.023 C 188.114 111.768, 161.555 117.719, 126 119.941 C 87.118 122.370, 50.646 115.196, 18.987 98.889 C 14.319 96.485, 10.161 94.364, 9.747 94.175 C 9.333 93.986, 9.108 167.973, 9.247 258.591 L 9.500 423.350 21 429.116 C 50.413 443.865, 86.167 451.217, 120.500 449.574 C 157.021 447.826, 183.489 442.177, 256 420.652 C 312.025 404.021, 332.516 398.856, 357.655 395.029 C 410.381 387.001, 452.597 392.706, 493.876 413.438 L 503.006 418.023 502.753 253.262 L 502.500 88.500 491.183 82.842 C 460.313 67.409, 419.774 59.743, 384.500 62.668 M 37.570 129.500 C 39.037 133.394, 39.227 139.406, 38.049 144.672 C 37.038 149.187, 37.096 150.487, 38.428 153.156 C 40.417 157.143, 40.413 159.441, 38.409 162.498 C 37.080 164.528, 36.997 165.761, 37.909 170.012 C 39.273 176.372, 39.319 183.685, 38 184.500 C 36.517 185.416, 36.789 187, 38.429 187 C 40.690 187, 43.204 183.888, 42.651 181.772 C 42.285 180.375, 42.551 179.998, 43.613 180.405 C 44.444 180.724, 45.012 180.433, 44.922 179.734 C 44.572 177.013, 45.100 176.125, 47.250 175.820 C 48.956 175.577, 49.574 174.740, 49.805 172.358 C 50.050 169.835, 49.529 168.801, 47.160 167.114 C 44.674 165.344, 44.119 165.248, 43.636 166.506 C 42.818 168.638, 43.930 170.964, 45.482 170.369 C 46.205 170.091, 47.097 170.348, 47.462 170.939 C 48.474 172.576, 45.186 173.399, 43.436 171.947 C 42.504 171.174, 42.017 169.454, 42.199 167.585 C 42.569 163.798, 45.558 163.012, 48.997 165.797 C 52.991 169.030, 52.073 172.481, 43.167 187.715 C 37.545 197.331, 35 202.683, 35 204.892 C 35 208.669, 37.279 213.481, 39.750 214.920 C 41.342 215.847, 41.348 215.942, 39.821 215.970 C 37.161 216.018, 35 218.865, 35 222.322 C 35 224.070, 38.408 233.825, 42.573 244 C 46.739 254.175, 50.549 263.795, 51.040 265.378 C 52.137 268.911, 50.703 272, 47.965 272 C 45.757 272, 41.983 268.661, 42.032 266.750 C 42.051 265.987, 42.581 266.181, 43.392 267.250 C 44.123 268.212, 45.908 269, 47.360 269 C 49.620 269, 50 268.573, 50 266.034 C 50 264.079, 48.964 262.009, 46.957 259.956 C 44.856 257.807, 44.103 256.249, 44.525 254.922 C 44.946 253.595, 44.659 253, 43.599 253 C 42.669 253, 42.282 252.429, 42.619 251.552 C 43.230 249.959, 40.276 244.320, 38.467 243.626 C 37.627 243.303, 37.601 244.211, 38.369 247.086 C 39.106 249.851, 39.076 252.927, 38.264 257.667 C 37.294 263.332, 37.361 264.895, 38.704 267.925 C 40.755 272.551, 40.766 273.965, 38.776 277 C 37.346 279.181, 37.282 280.494, 38.273 287.289 C 39.112 293.041, 39.117 295.851, 38.292 298.039 C 37.324 300.603, 37.403 301, 38.887 301 C 41.133 301, 43 299.067, 43 296.741 C 43 295.636, 43.449 295.160, 44.107 295.566 C 44.852 296.027, 44.994 295.556, 44.540 294.126 C 44.007 292.447, 44.410 291.795, 46.458 291.016 C 47.885 290.474, 49.313 289.347, 49.633 288.513 C 50.634 285.906, 49.154 282.391, 46.560 281.209 C 43.712 279.912, 42.848 280.701, 43.670 283.848 C 44.104 285.504, 44.560 285.780, 45.533 284.973 C 46.429 284.229, 47.020 284.223, 47.470 284.951 C 48.206 286.143, 47.318 288, 46.012 288 C 42.641 288, 40.454 279.807, 43.512 278.634 C 45.882 277.724, 49.752 279.988, 51.007 283.016 C 52.313 286.170, 51.526 287.991, 41.084 305.984 C 33.626 318.836, 33.185 322.385, 38.400 327.600 C 41.539 330.739, 41.631 331, 39.600 331 C 32.903 331, 33.508 336.782, 42.473 358.466 C 46.559 368.348, 49.811 376.521, 49.700 376.630 C 49.590 376.739, 48.431 375.961, 47.125 374.902 C 45.777 373.810, 44.750 371.901, 44.750 370.488 C 44.750 369.120, 44.194 368, 43.514 368 C 42.751 368, 42.452 367.089, 42.732 365.620 C 43.057 363.924, 42.273 362.273, 40.002 359.870 C 37.862 357.607, 37.064 357.157, 37.570 358.500 C 39.032 362.380, 39.229 368.399, 38.063 373.607 C 37.070 378.045, 37.130 379.351, 38.442 381.888 C 40.423 385.719, 40.414 388.439, 38.409 391.498 C 37.080 393.528, 36.997 394.761, 37.909 399.012 C 39.273 405.372, 39.319 412.685, 38 413.500 C 36.060 414.699, 36.991 416.138, 39.250 415.433 C 42.077 414.550, 43.151 413.018, 42.586 410.671 C 42.275 409.380, 42.578 409.008, 43.613 409.405 C 44.444 409.724, 45.012 409.433, 44.922 408.734 C 44.572 406.013, 45.100 405.125, 47.250 404.820 C 48.956 404.577, 49.574 403.740, 49.805 401.358 C 50.051 398.831, 49.529 397.801, 47.141 396.100 C 44.990 394.568, 44.048 394.332, 43.723 395.243 C 43.476 395.934, 42.905 396.155, 42.454 395.733 C 42.002 395.312, 42.164 394.436, 42.812 393.788 C 44.605 391.995, 49.256 394.047, 50.827 397.325 C 52.035 399.845, 51.872 400.698, 49.079 406.489 C 47.386 410.001, 46 413.352, 46 413.937 C 46 416.039, 50.059 419, 52.941 419 C 54.559 419, 56.160 419.450, 56.500 420 C 57.490 421.601, 62.004 421.153, 62.682 419.387 C 63.022 418.499, 62.338 415.494, 61.162 412.709 C 59.985 409.924, 59.130 407.538, 59.261 407.408 C 60.176 406.504, 64.250 411.487, 64.250 413.512 C 64.250 414.880, 64.827 416, 65.531 416 C 66.270 416, 66.615 416.758, 66.345 417.788 C 66.088 418.771, 66.838 420.796, 68.012 422.288 C 70.495 425.445, 72.598 425.986, 71.035 423.066 C 69.686 420.544, 69.716 414.012, 71.103 408.503 C 72.011 404.897, 71.923 403.552, 70.603 400.907 C 68.607 396.906, 68.593 395.123, 70.526 391.248 C 71.729 388.837, 71.840 387.268, 71.051 383.844 C 69.742 378.170, 69.735 371.363, 71.035 368.934 C 71.826 367.456, 71.745 367, 70.690 367 C 68.851 367, 66 370.239, 66 372.329 C 66 373.248, 65.564 374, 65.031 374 C 64.499 374, 64.269 374.563, 64.521 375.250 C 65.165 377.008, 63.853 378.702, 61.500 379.148 C 58.340 379.747, 58.701 386.042, 61.989 387.682 C 64.961 389.163, 66.150 388.289, 65.345 385.212 C 64.900 383.508, 64.441 383.219, 63.467 384.027 C 62.565 384.776, 61.982 384.780, 61.526 384.041 C 60.539 382.446, 63.812 381.599, 65.513 383.011 C 67.734 384.854, 67.425 389.730, 65.038 390.488 C 60.946 391.787, 56.264 386.899, 57.589 382.712 C 57.975 381.496, 61.823 373.975, 66.142 366 C 75.248 349.186, 75.921 345.767, 71.077 340.923 C 69.469 339.315, 68.569 338, 69.077 338 C 71.182 338, 74 333.844, 73.992 330.750 C 73.988 328.918, 70.670 319.866, 66.385 310 C 57.359 289.215, 56.742 287.350, 58.068 284.872 C 60.211 280.868, 67 284.073, 67 289.088 C 67 292.646, 64.543 293.972, 62.232 291.661 C 60.309 289.737, 61.324 288.194, 63.387 289.906 C 65.117 291.342, 66.098 290.089, 65.383 287.357 C 64.976 285.801, 64.223 285.460, 61.931 285.797 C 59.475 286.157, 59 286.689, 59 289.079 C 59 290.913, 60.095 293.051, 62.067 295.069 C 63.754 296.795, 64.893 298.835, 64.599 299.603 C 64.284 300.423, 64.694 301, 65.590 301 C 66.431 301, 66.823 301.477, 66.463 302.060 C 65.495 303.626, 67.742 308.358, 70.174 309.877 C 72.084 311.070, 72.212 311.018, 71.493 309.349 C 69.969 305.815, 69.772 300.834, 70.926 294.968 C 71.937 289.834, 71.862 288.643, 70.351 285.785 C 68.155 281.629, 68.156 280.147, 70.358 276.826 C 71.928 274.457, 71.996 273.466, 70.948 268.142 C 69.792 262.264, 69.961 257.182, 71.427 253.823 C 72.012 252.480, 71.738 252.256, 70.047 252.698 C 67.534 253.355, 65.611 256.544, 66.434 258.689 C 66.859 259.797, 66.572 260.050, 65.400 259.600 C 64.296 259.177, 63.943 259.410, 64.296 260.329 C 64.924 261.965, 64.155 263.139, 61.500 264.601 C 60.317 265.252, 59.374 266.965, 59.191 268.795 C 58.932 271.380, 59.384 272.147, 61.941 273.469 C 63.670 274.363, 65 274.605, 65 274.026 C 65 273.462, 65.450 273, 66 273 C 67.556 273, 67.176 274.995, 65.498 275.639 C 62.845 276.657, 59.378 275.124, 58.128 272.382 C 56.795 269.456, 57.960 266.624, 68.952 246.054 C 75.428 233.936, 75.483 228.626, 69.174 224.712 C 66.747 223.206, 66.693 223.051, 68.595 223.027 C 71.584 222.989, 74 219.881, 74 216.074 C 74 214.190, 70.822 205.574, 66.499 195.737 C 62.374 186.349, 59.112 178.556, 59.249 178.420 C 60.173 177.506, 64.250 182.473, 64.250 184.512 C 64.250 185.880, 64.827 187, 65.531 187 C 66.270 187, 66.615 187.758, 66.345 188.788 C 66.088 189.771, 66.838 191.796, 68.012 193.288 C 70.495 196.445, 72.598 196.986, 71.035 194.066 C 69.686 191.544, 69.716 185.012, 71.103 179.503 C 72.011 175.897, 71.923 174.552, 70.603 171.907 C 68.607 167.906, 68.593 166.123, 70.526 162.248 C 71.729 159.837, 71.840 158.268, 71.051 154.844 C 69.742 149.170, 69.735 142.363, 71.035 139.934 C 71.826 138.456, 71.745 138, 70.690 138 C 68.851 138, 66 141.239, 66 143.329 C 66 144.248, 65.564 145, 65.031 145 C 64.499 145, 64.269 145.563, 64.521 146.250 C 65.166 148.009, 63.851 149.703, 61.500 150.143 C 60.093 150.406, 59.409 151.445, 59.195 153.651 C 58.950 156.165, 59.473 157.201, 61.840 158.886 C 65.092 161.202, 66.378 160.160, 65.309 156.075 C 64.892 154.481, 64.438 154.222, 63.467 155.027 C 62.565 155.776, 61.982 155.780, 61.526 155.041 C 60.539 153.446, 63.812 152.599, 65.513 154.011 C 66.331 154.689, 67 156.509, 67 158.055 C 67 161.603, 63.906 162.824, 60.527 160.610 C 56.640 158.063, 56.526 155.550, 59.971 148.407 C 61.894 144.419, 62.866 141.152, 62.485 139.953 C 61.764 137.681, 58.672 135.789, 56.211 136.112 C 55.270 136.236, 53.291 135.752, 51.814 135.037 C 48.613 133.488, 45.992 134.249, 46.022 136.719 C 46.034 137.698, 46.942 140.480, 48.040 142.899 C 49.137 145.318, 49.915 147.417, 49.768 147.563 C 48.831 148.490, 44.750 143.549, 44.750 141.488 C 44.750 140.120, 44.194 139, 43.514 139 C 42.751 139, 42.452 138.089, 42.732 136.620 C 43.057 134.924, 42.273 133.273, 40.002 130.870 C 37.862 128.607, 37.064 128.157, 37.570 129.500 M 50.543 140.250 C 50.916 141.488, 51.996 144.300, 52.944 146.500 L 54.667 150.500 56.903 146.153 C 59.408 141.284, 59.072 138.525, 56.089 139.472 C 55.033 139.807, 53.879 139.613, 53.525 139.041 C 53.171 138.468, 52.203 138, 51.374 138 C 50.275 138, 50.049 138.612, 50.543 140.250 M 42.390 148.427 C 41.378 151.064, 42.481 154.285, 45.049 156.195 C 49.297 159.354, 52.331 157.004, 51.195 151.437 L 50.595 148.500 50.043 151.500 C 49.617 153.814, 48.893 154.569, 46.876 154.804 C 44.877 155.036, 44.124 154.583, 43.679 152.880 C 42.909 149.936, 43.828 148.612, 45.613 150.094 C 47.673 151.803, 48.406 150.549, 46.476 148.619 C 44.478 146.621, 43.107 146.557, 42.390 148.427 M 51.355 160.850 C 49.262 161.484, 49.281 161.564, 52.113 164.142 C 53.709 165.595, 55.264 166.383, 55.567 165.892 C 55.870 165.401, 57.026 165, 58.136 165 C 59.905 165, 59.788 164.692, 57.182 162.500 C 55.548 161.125, 54.051 160.045, 53.856 160.100 C 53.660 160.155, 52.535 160.492, 51.355 160.850 M 265.710 167.442 C 262.628 174.946, 262.329 177.805, 264.537 178.653 C 267.651 179.848, 270.005 176.111, 269.930 170.095 C 269.810 160.596, 268.786 159.952, 265.710 167.442 M 278.656 164.754 C 271.965 175.352, 271.050 179, 275.084 179 C 277.815 179, 279.704 175.369, 280.808 168 C 281.343 164.425, 281.637 161.345, 281.462 161.156 C 281.288 160.966, 280.024 162.585, 278.656 164.754 M 253.740 171.143 C 252.878 175.071, 252.407 178.896, 252.693 179.643 C 253.503 181.754, 256.796 181.241, 258.428 178.750 C 259.731 176.761, 259.720 175.774, 258.328 170.250 C 257.462 166.812, 256.428 164, 256.030 164 C 255.633 164, 254.602 167.214, 253.740 171.143 M 287.123 170.044 C 281.817 176.394, 280.393 181.014, 283.750 180.985 C 284.712 180.976, 286.059 180.614, 286.743 180.180 C 287.995 179.385, 293.320 164.986, 292.621 164.288 C 292.415 164.081, 289.941 166.672, 287.123 170.044 M 58.606 169.882 C 57.361 171.258, 57.106 172.537, 57.658 174.632 L 58.412 177.500 58.961 174.500 C 59.384 172.184, 60.106 171.431, 62.127 171.196 C 65.099 170.851, 66.567 173.167, 65.069 175.836 C 64.205 177.374, 64.084 177.368, 63.462 175.756 C 63.093 174.796, 62.407 174.248, 61.939 174.538 C 60.323 175.537, 62.221 178, 64.607 178 C 66.555 178, 66.997 177.488, 66.985 175.250 C 66.966 171.941, 66.201 170.668, 63.316 169.150 C 60.521 167.679, 60.614 167.664, 58.606 169.882 M 242.607 170.582 C 242.273 171.452, 242 174.841, 242 178.113 C 242 182.699, 242.375 184.207, 243.636 184.691 C 245.820 185.529, 248.427 183.785, 248.809 181.231 C 249.076 179.440, 244.622 169, 243.590 169 C 243.383 169, 242.941 169.712, 242.607 170.582 M 296.213 174.626 C 291.745 178.605, 290 180.858, 290 182.646 C 290 184.757, 290.406 185.085, 292.691 184.816 C 294.891 184.558, 296.095 183.170, 299.303 177.196 C 301.460 173.178, 303.045 169.711, 302.825 169.492 C 302.605 169.272, 299.629 171.582, 296.213 174.626 M 230.655 179.576 C 232.005 188.627, 232.617 190.495, 234.342 190.827 C 235.307 191.013, 236.749 190.623, 237.548 189.960 C 240.136 187.813, 239.149 184.562, 234.535 180.034 L 230.069 175.651 230.655 179.576 M 46.617 190.787 C 39.078 204.532, 38.413 206.306, 39.621 209.455 C 40.433 211.570, 45.766 214.304, 47.660 213.577 C 49.569 212.844, 49.004 208.500, 47 208.500 C 46.175 208.500, 45.622 209.175, 45.771 210 C 45.921 210.825, 44.709 209.925, 43.079 208 C 40.885 205.410, 40.490 204.416, 41.558 204.177 C 42.351 203.999, 43 203.211, 43 202.427 C 43 200.569, 44.626 200.584, 45.342 202.448 C 45.647 203.244, 47.270 204.606, 48.949 205.473 L 52 207.051 52 202.504 C 52 198.612, 51.636 197.791, 49.474 196.806 C 46.588 195.491, 46.694 193.643, 49.680 193.200 C 51.177 192.978, 51.593 192.321, 51.278 190.672 C 51.015 189.296, 51.617 187.752, 52.854 186.632 C 54.807 184.865, 54.896 184.898, 56.488 187.977 C 57.386 189.714, 57.968 191.892, 57.782 192.817 C 57.595 193.743, 58.468 195.320, 59.721 196.323 C 62.621 198.642, 62.633 200.043, 59.750 199.738 C 57.735 199.525, 57.468 199.996, 57.195 204.250 C 56.898 208.879, 56.963 209, 59.745 209 C 61.315 209, 63.073 208.527, 63.651 207.949 C 64.386 207.214, 65.201 207.658, 66.360 209.427 C 67.904 211.783, 67.904 212.090, 66.355 213.899 C 64.713 215.816, 64.669 215.813, 62.932 213.670 C 60.811 211.055, 59.521 211.954, 60.395 215.438 C 61.556 220.063, 69.089 220.018, 69.789 215.382 C 70.016 213.875, 55.953 178.619, 54.574 177.241 C 54.387 177.054, 50.806 183.149, 46.617 190.787 M 305.477 180.176 C 298.954 184.182, 296 186.953, 296 189.067 C 296 191.630, 298.991 192.314, 301.278 190.274 C 303.797 188.027, 311.299 177.965, 310.816 177.482 C 310.616 177.283, 308.214 178.495, 305.477 180.176 M 219.032 186.221 C 219.084 188.298, 224.400 198.390, 225.634 198.754 C 227.411 199.279, 230.139 195.969, 229.803 193.694 C 229.463 191.384, 218.979 184.110, 219.032 186.221 M 254.942 187.287 C 245.137 190.630, 237.593 195.639, 229.641 204.087 C 218 216.455, 212.357 230.501, 213.215 244.975 C 214.230 262.100, 224.670 273.253, 241.079 274.741 C 263.808 276.802, 290.778 254.944, 297.518 229 C 299.751 220.405, 299.136 209.379, 296.024 202.221 C 293.204 195.736, 285.786 188.797, 279.316 186.592 C 272.653 184.322, 262.818 184.602, 254.942 187.287 M 309.086 189.869 C 302.308 192.727, 300.280 194.682, 301.309 197.364 C 302.460 200.362, 305.506 199.057, 311.500 193 C 314.766 189.700, 317.001 187.037, 316.469 187.082 C 315.936 187.127, 312.613 188.382, 309.086 189.869 M 209.025 196.780 C 209.038 197.176, 210.618 199.637, 212.535 202.250 C 216.113 207.127, 218.782 208.172, 220.960 205.548 C 223.335 202.686, 221.674 200.578, 215.237 198.283 C 211.807 197.060, 209.011 196.384, 209.025 196.780 M 313.711 199.569 C 306.178 201.394, 304 202.627, 304 205.067 C 304 209.745, 309.629 208.261, 317.500 201.507 C 321.974 197.668, 321.840 197.600, 313.711 199.569 M 205 212.956 C 210.241 217.660, 213.520 218.148, 215.194 214.473 C 216.877 210.781, 215.159 209.653, 207.247 209.256 L 200.500 208.918 205 212.956 M 306.040 212.452 C 304.415 214.410, 305.113 217.398, 307.293 217.818 C 309.035 218.153, 322 212.630, 322 211.553 C 322 211.249, 318.680 211, 314.622 211 C 309.393 211, 306.894 211.423, 306.040 212.452 M 342.889 214.712 C 342.070 215.696, 340.599 219.633, 339.620 223.463 C 338.642 227.292, 337.272 231.510, 336.578 232.836 C 335.458 234.974, 335.367 234.615, 335.778 229.659 C 336.752 217.915, 333.681 218.633, 330.043 231 C 321.436 260.258, 297.431 286.985, 266.634 301.599 C 259.633 304.922, 258.190 306.110, 253.496 312.416 C 247.681 320.229, 244.832 323.050, 237.743 328.017 C 235.126 329.850, 231.863 333.264, 230.493 335.603 C 227.605 340.531, 227.161 342.941, 229.500 341 C 230.325 340.315, 231 340.010, 231 340.323 C 231 340.635, 233.422 339.819, 236.383 338.509 C 241.520 336.238, 250.438 333.375, 259.851 330.977 C 262.244 330.367, 264.033 329.699, 263.826 329.493 C 263.619 329.286, 259.338 330.131, 254.313 331.371 L 245.176 333.625 245.401 331.520 C 245.524 330.363, 246.020 328.777, 246.502 327.997 C 247.791 325.911, 239.810 330.827, 238.218 333.099 C 236.849 335.054, 233.359 335.846, 234.541 333.933 C 234.904 333.347, 235.381 333.048, 235.603 333.269 C 236.075 333.742, 245.341 325.419, 255.399 315.489 C 261.631 309.336, 263.851 307.897, 273.538 303.736 C 282.527 299.875, 285.141 298.260, 287.617 295.038 C 290.530 291.249, 302.366 280.772, 307.637 277.318 C 309.018 276.414, 311.754 273.159, 313.717 270.087 C 319.455 261.105, 323.719 256.427, 328.458 253.913 C 330.898 252.619, 333.169 251.835, 333.505 252.172 C 333.842 252.508, 333.428 254.434, 332.585 256.451 C 331.109 259.984, 331.125 260.095, 333.026 259.492 C 335.641 258.662, 335.626 260.935, 332.994 264.280 C 331.539 266.130, 331.333 266.956, 332.244 267.290 C 333.011 267.571, 331.843 269.194, 329.243 271.459 C 326.901 273.499, 325.196 275.509, 325.454 275.925 C 325.711 276.341, 324.577 277.676, 322.933 278.891 C 321.289 280.107, 320.186 281.492, 320.482 281.970 C 320.777 282.449, 319.890 283.728, 318.510 284.814 C 317.129 285.900, 316 287.480, 316 288.327 C 316 289.173, 315.100 290.151, 314 290.500 C 312.900 290.849, 312 291.947, 312 292.940 C 312 295.061, 304.687 302.074, 299.864 304.576 C 298.014 305.537, 297.052 306.509, 297.727 306.737 C 299.480 307.329, 310.711 301.444, 315.885 297.222 C 320.051 293.823, 320.161 293.604, 318.071 292.831 C 315.022 291.703, 316.170 290.436, 322 288.500 C 327.486 286.678, 330.044 284.376, 325.649 285.216 C 322.096 285.896, 322.310 285.325, 326.250 283.620 C 328.038 282.846, 330.400 281.498, 331.500 280.624 C 333.407 279.109, 333.337 279.062, 330 279.608 C 326.701 280.148, 326.860 279.948, 332.750 276.116 C 336.188 273.880, 339 271.779, 339 271.446 C 339 271.113, 337.540 271.162, 335.756 271.554 L 332.513 272.266 337.506 267.673 C 340.253 265.146, 342.816 263.062, 343.202 263.040 C 344.230 262.982, 350.282 253.949, 349.689 253.356 C 349.413 253.079, 347.277 254.236, 344.943 255.926 C 338.199 260.812, 338.268 259.550, 345.172 251.750 C 353.547 242.288, 356 239.030, 356 237.365 C 356 234.610, 353.479 236.156, 347.216 242.750 C 343.685 246.467, 341.610 248.152, 342.598 246.500 C 343.584 244.850, 346.553 240.020, 349.196 235.768 C 354.093 227.885, 355.186 224, 352.506 224 C 351.110 224, 349.941 225.439, 342.686 236.079 C 341.139 238.349, 339.692 240.025, 339.471 239.804 C 339.250 239.584, 340.191 236.626, 341.562 233.232 C 344.811 225.190, 346.508 216.730, 345.304 214.578 C 344.452 213.056, 344.260 213.066, 342.889 214.712 M 52.496 216.627 C 51.463 217.382, 49.850 218, 48.912 218 C 47.647 218, 48.149 218.976, 50.853 221.773 C 53.943 224.970, 54.741 225.351, 56.079 224.273 C 56.947 223.573, 58.410 223, 59.329 223 C 61.576 223, 61.504 222.814, 57.687 218.767 C 54.722 215.623, 54.176 215.398, 52.496 216.627 M 199.750 220.713 C 197.137 220.931, 195 221.470, 195 221.911 C 195 222.352, 197.587 223.883, 200.748 225.313 C 205.721 227.563, 206.767 227.735, 208.498 226.585 C 209.599 225.854, 210.500 224.186, 210.500 222.878 C 210.500 220.258, 208.950 219.946, 199.750 220.713 M 39.667 221.667 C 39.300 222.033, 39 223.383, 39 224.667 C 39 227.348, 42.403 227.998, 43.362 225.500 C 43.940 223.992, 46.103 223.349, 45.882 224.750 C 45.556 226.813, 46.147 228, 47.500 228 C 49.780 228, 49.291 224.317, 46.777 222.557 C 44.485 220.951, 40.839 220.494, 39.667 221.667 M 306.022 222.697 C 303.658 224.353, 303.346 227.812, 305.486 228.633 C 306.303 228.947, 310.223 228.216, 314.196 227.009 C 322.160 224.590, 322.011 223.819, 313.272 222.231 C 309.185 221.488, 307.602 221.590, 306.022 222.697 M 60.667 227.667 C 60.300 228.033, 60 229.158, 60 230.167 C 60 232.178, 61.995 232.605, 63.651 230.949 C 64.386 230.214, 65.245 230.725, 66.505 232.648 C 67.731 234.520, 67.938 235.521, 67.153 235.782 C 66.519 235.994, 66 236.804, 66 237.583 C 66 238.363, 65.550 239, 65 239 C 64.450 239, 64 238.594, 64 238.099 C 64 237.603, 62.402 236.254, 60.448 235.102 L 56.896 233.006 57.198 238.253 C 57.461 242.824, 57.790 243.541, 59.750 243.820 C 62.710 244.240, 62.643 246.801, 59.652 247.551 C 57.882 247.995, 57.408 248.684, 57.726 250.348 C 57.985 251.702, 57.374 253.256, 56.146 254.368 C 54.193 256.136, 54.104 256.102, 52.486 252.973 C 51.574 251.209, 51.044 248.940, 51.308 247.929 C 51.618 246.744, 50.939 245.535, 49.394 244.523 C 46.171 242.411, 46.235 240.131, 49.500 240.755 C 51.867 241.208, 52 240.994, 52 236.730 C 52 232.461, 51.839 232.203, 48.907 231.773 C 46.851 231.471, 45.635 231.787, 45.280 232.714 C 44.911 233.675, 44.146 233.124, 42.818 230.942 C 38.852 224.419, 40.203 229.192, 47.106 246.087 C 51.019 255.664, 54.311 263.602, 54.421 263.727 C 54.980 264.362, 70 234.761, 70 233.026 C 70 229.042, 63.197 225.136, 60.667 227.667 M 197.310 232.848 C 194.455 233.757, 191.832 234.798, 191.481 235.163 C 190.662 236.011, 201.298 238.243, 204.144 237.820 C 208.696 237.143, 209.288 230.904, 204.781 231.098 C 203.527 231.152, 200.164 231.939, 197.310 232.848 M 302.571 233.571 C 300.694 235.449, 300.491 238.949, 302.250 239.124 C 305.235 239.420, 314.559 238.729, 316.309 238.081 C 317.846 237.513, 317.042 236.843, 312.237 234.687 C 305.252 231.552, 304.659 231.484, 302.571 233.571 M 196 245 L 188.500 248.901 196.095 248.951 C 202.225 248.990, 204.009 248.647, 205.345 247.171 C 207.436 244.861, 207.468 242.394, 205.418 241.607 C 203.509 240.874, 204.884 240.379, 196 245 M 298.108 243.637 C 296.731 244.601, 296.003 246.010, 296.193 247.340 C 296.532 249.714, 299.471 250.683, 306.937 250.882 L 311.374 251 308.732 248.242 C 307.279 246.725, 304.794 244.719, 303.209 243.783 C 300.589 242.235, 300.129 242.221, 298.108 243.637 M 197.401 256 C 190.009 261.389, 190.471 262.129, 199.807 259.859 C 205.130 258.565, 208 256.496, 208 253.952 C 208 252.559, 206.177 251, 204.548 251 C 204.389 251, 201.173 253.250, 197.401 256 M 291.750 253.080 C 290.788 253.641, 290 255.225, 290 256.601 C 290 259.261, 292.950 261.013, 299.945 262.508 L 303.390 263.245 301.566 260.372 C 299.469 257.071, 294.895 251.985, 294.063 252.030 C 293.753 252.047, 292.712 252.519, 291.750 253.080 M 166.405 262.520 C 165.560 265.890, 167.422 272.912, 171.087 280.173 C 173.677 285.304, 173.822 285.975, 172.142 285.076 C 171.071 284.503, 168.723 282.114, 166.924 279.767 C 162.735 274.302, 161.139 273.009, 159.403 273.676 C 156.010 274.978, 158.996 280.818, 167.876 290.250 C 172.975 295.667, 169.269 294.778, 162.022 288.847 C 157.985 285.542, 156 285.225, 156 287.884 C 156 289.980, 161.041 294.868, 168.487 299.991 C 173.862 303.689, 173.138 305.026, 166.879 302.960 C 164.740 302.254, 162.698 301.969, 162.341 302.325 C 161.230 303.436, 168.653 309.659, 173.436 311.626 C 178.501 313.709, 179.291 315, 175.500 315 C 170.960 315, 172.900 316.837, 178.750 318.077 C 184.462 319.288, 184.481 319.304, 181.633 320.496 C 179.287 321.478, 179.074 321.815, 180.465 322.348 C 181.399 322.707, 183.589 323.016, 185.332 323.035 L 188.500 323.071 186 324.593 C 183.616 326.045, 183.758 326.090, 189.093 325.567 C 195.580 324.932, 197.022 325.720, 193.807 328.146 L 191.523 329.868 194.512 331.100 C 198.564 332.771, 213.520 332.880, 215.150 331.250 C 216.150 330.250, 215.454 330, 211.668 330 C 205.476 330, 200 327.721, 200 325.145 C 200 323.680, 199.497 323.319, 198 323.710 C 196.636 324.067, 196 323.741, 196 322.684 C 196 321.832, 195.100 320.849, 194 320.500 C 192.900 320.151, 192 319.256, 192 318.512 C 192 317.768, 190.646 316.862, 188.991 316.498 C 187.336 316.135, 186.235 315.428, 186.545 314.928 C 186.854 314.428, 185.395 313.240, 183.303 312.289 C 178.305 310.016, 178.325 310.036, 180.029 308.974 C 181.258 308.207, 181.130 307.796, 179.250 306.471 C 176.450 304.499, 176.325 302, 179.026 302 C 180.947 302, 180.973 301.848, 179.526 299.050 C 177.254 294.656, 177.596 294, 182.162 294 C 187.249 294, 193.643 297.530, 197.892 302.685 C 200.622 305.997, 201.923 306.610, 210.715 308.724 C 216.174 310.037, 222.054 312.154, 224.015 313.512 L 227.529 315.946 238.515 314.391 C 247.053 313.182, 249.890 312.384, 251.250 310.807 C 253.780 307.875, 253.429 306.672, 250.250 307.372 C 242.994 308.970, 231.101 309.081, 223.073 307.627 C 202.707 303.937, 187.965 290.809, 181.637 270.727 C 180.121 265.914, 179.067 264.037, 178.001 264.251 C 176.823 264.488, 176.515 266.126, 176.567 271.852 C 176.625 278.133, 176.467 278.826, 175.433 276.825 C 174.772 275.546, 173.418 271.800, 172.424 268.500 C 169.770 259.690, 167.646 257.580, 166.405 262.520 M 200.510 266.140 C 196.900 269.517, 194.133 272.466, 194.360 272.694 C 195.028 273.361, 207.169 268.157, 209.170 266.346 C 212.062 263.729, 211.054 260, 207.455 260 C 207.245 260, 204.120 262.763, 200.510 266.140 M 283.046 262.445 C 280.816 265.132, 282.303 268.222, 287.301 271.287 C 289.941 272.907, 292.344 273.989, 292.641 273.692 C 292.938 273.395, 291.954 270.418, 290.454 267.076 C 287.654 260.838, 285.498 259.490, 283.046 262.445 M 42 263.500 C 42 264.325, 42.450 265, 43 265 C 43.550 265, 44 264.464, 44 263.809 C 44 263.154, 44.638 263.491, 45.418 264.557 C 46.198 265.624, 47.162 266.171, 47.561 265.773 C 48.647 264.686, 46.025 262, 43.878 262 C 42.845 262, 42 262.675, 42 263.500 M 61.667 267.667 C 60.394 268.940, 61.010 270.145, 62.750 269.787 C 63.712 269.589, 65.048 270.119, 65.718 270.964 C 66.813 272.344, 66.940 272.343, 66.968 270.950 C 67.026 268.123, 63.435 265.899, 61.667 267.667 M 209.405 270.680 C 206.150 274.172, 200.681 282.014, 201.164 282.498 C 201.361 282.694, 204.667 280.750, 208.511 278.177 C 214.035 274.480, 215.500 272.979, 215.500 271.014 C 215.500 267.460, 212.557 267.299, 209.405 270.680 M 273.644 271.098 C 271.776 273.764, 272.374 275.078, 277.885 280.418 L 281.929 284.336 281.345 280.418 C 279.905 270.768, 279.451 269.505, 277.306 269.193 C 276.012 269.005, 274.593 269.743, 273.644 271.098 M 52.186 275.400 L 49.945 276.600 52.223 278.727 C 54.141 280.519, 54.845 280.668, 56.692 279.673 L 58.885 278.491 56.656 276.346 C 54.760 274.521, 54.092 274.380, 52.186 275.400 M 217.733 275.092 C 216.236 275.961, 209 288.762, 209 290.540 C 209 290.864, 211.945 288.527, 215.545 285.347 C 220.717 280.778, 222.029 279.049, 221.795 277.109 C 221.453 274.260, 220.218 273.647, 217.733 275.092 M 264.238 276.162 C 262.346 278.054, 262.739 280.750, 265.700 286.190 C 268.217 290.815, 268.457 290.996, 269.244 288.870 C 269.708 287.616, 269.955 284.094, 269.794 281.045 C 269.546 276.369, 269.185 275.455, 267.488 275.212 C 266.382 275.053, 264.919 275.481, 264.238 276.162 M 223.634 281.750 C 221.967 284.986, 218.847 295.180, 219.365 295.698 C 220.227 296.560, 230 283.286, 230 281.254 C 230 277.817, 225.479 278.169, 223.634 281.750 M 253.613 280.876 C 252.022 282.634, 252.019 283.166, 253.579 289.376 C 254.494 293.019, 255.576 296, 255.983 296 C 256.870 296, 260.009 280.826, 259.345 279.750 C 258.489 278.363, 255.324 278.984, 253.613 280.876 M 233.643 282.499 C 232.819 283.324, 231.850 286.587, 231.490 289.749 C 231.130 292.912, 230.618 296.288, 230.351 297.250 C 229.415 300.622, 230.946 298.941, 234.955 292.192 C 239.441 284.641, 240.129 281, 237.071 281 C 236.011 281, 234.468 281.675, 233.643 282.499 M 243.035 282.934 C 241.881 285.091, 241.755 294.523, 242.843 297.278 C 243.365 298.599, 244.248 297.254, 246.273 292.048 C 249.742 283.132, 249.792 281, 246.535 281 C 245.122 281, 243.629 281.825, 243.035 282.934 M 46.616 305.326 C 42.427 312.747, 39 319.780, 39 320.955 C 39 323.944, 43.518 328.208, 46.271 327.817 C 49.323 327.383, 50.049 323, 47.070 323 C 45.931 323, 44.998 323.563, 44.996 324.250 C 44.994 324.938, 44.091 324.022, 42.990 322.215 L 40.987 318.930 42.994 316.777 C 44.591 315.062, 45 314.947, 45 316.213 C 45 317.087, 46.575 318.732, 48.500 319.867 L 52 321.933 52 316.985 C 52 312.542, 51.745 311.974, 49.500 311.411 C 46.212 310.585, 46.227 308, 49.519 308 C 51.632 308, 51.947 307.637, 51.474 305.750 C 51.150 304.454, 51.566 302.652, 52.456 301.500 C 53.988 299.517, 54.019 299.521, 56.078 301.956 C 57.322 303.428, 57.980 305.323, 57.720 306.685 C 57.417 308.272, 57.996 309.423, 59.643 310.502 C 62.835 312.593, 62.748 314.866, 59.500 314.245 C 57.125 313.791, 57 313.998, 57 318.383 C 57 322.971, 57.021 323, 60.417 323 C 62.296 323, 64.066 322.438, 64.349 321.750 C 64.662 320.993, 65.135 321.387, 65.549 322.750 C 65.925 323.988, 66.631 325, 67.117 325 C 68.586 325, 68.112 326.963, 66.130 329.091 L 64.259 331.099 63.723 329.049 C 63.428 327.922, 62.470 327, 61.594 327 C 59.079 327, 59.714 330.767, 62.541 332.619 C 65.772 334.736, 70 333.189, 70 329.890 C 70 327.878, 56.494 294.493, 54.941 292.666 C 54.552 292.208, 50.805 297.905, 46.616 305.326 M 300 311.668 C 293.887 312.635, 284 316.336, 284 317.657 C 284 318.430, 283.325 319.322, 282.500 319.638 C 281.675 319.955, 281 321.035, 281 322.039 C 281 324.857, 276.558 327.391, 263.580 331.977 C 250.781 336.500, 244.743 339.742, 242.978 343.041 C 240.966 346.800, 242.540 347.343, 246.181 344.146 C 250.206 340.612, 251 340.340, 251 342.500 C 251 344.815, 252.771 344.279, 254.662 341.393 C 256.294 338.903, 256.432 338.869, 257.746 340.643 C 259.053 342.407, 259.269 342.336, 262.061 339.234 C 263.917 337.171, 265 336.527, 265 337.484 C 265 339.682, 267.746 339.344, 269.005 336.991 C 269.798 335.510, 270.709 335.140, 272.474 335.583 C 274.227 336.023, 275.212 335.633, 276.152 334.128 C 277.036 332.713, 278.107 332.240, 279.586 332.611 C 281.111 332.994, 282.327 332.400, 283.768 330.568 C 285.016 328.982, 286.390 328.213, 287.332 328.574 C 288.354 328.966, 289.374 328.178, 290.391 326.212 C 291.582 323.908, 292.438 323.361, 294.300 323.717 C 296.991 324.231, 300 321.809, 300 319.129 C 300 317.808, 300.857 317.400, 303.629 317.400 C 307.073 317.400, 311 314.464, 311 311.889 C 311 311.015, 304.904 310.892, 300 311.668 M 53.540 329.935 C 53.136 330.588, 51.674 331.554, 50.291 332.080 L 47.776 333.036 50.329 335.044 C 51.733 336.148, 53.176 337.979, 53.535 339.112 L 54.189 341.171 56.409 339.086 C 57.630 337.938, 59.500 336.988, 60.564 336.973 C 62.212 336.951, 62.112 336.706, 59.894 335.329 C 58.461 334.440, 56.610 332.594, 55.782 331.229 C 54.755 329.537, 54.041 329.125, 53.540 329.935 M 40.200 336.200 C 39.540 336.860, 39 338.146, 39 339.058 C 39 340.528, 53.448 376.781, 54.422 377.756 C 55.133 378.466, 70 349.316, 70 347.213 C 70 342.579, 60.989 339.045, 60.166 343.356 C 59.606 346.297, 61.856 347.877, 63.478 345.681 C 64.762 343.942, 64.850 343.953, 65.478 345.931 C 65.839 347.069, 66.554 348, 67.067 348 C 68.524 348, 68.167 349.782, 66.267 352.001 C 64.748 353.776, 64.465 353.825, 63.967 352.406 C 63.655 351.516, 61.935 350.172, 60.146 349.419 L 56.893 348.051 57.196 352.776 C 57.439 356.557, 57.950 357.697, 59.754 358.489 C 62.411 359.654, 62.185 361.375, 59.320 361.800 C 57.835 362.020, 57.406 362.686, 57.707 364.300 C 57.932 365.510, 57.443 367.400, 56.620 368.500 C 55.218 370.372, 55.013 370.393, 53.421 368.825 C 52.486 367.903, 51.671 365.653, 51.610 363.825 C 51.539 361.678, 50.703 359.854, 49.250 358.677 C 46.274 356.267, 46.392 354.809, 49.500 355.589 C 51.922 356.197, 52 356.058, 52 351.108 L 52 346 48.583 346 C 46.704 346, 44.985 346.546, 44.763 347.212 C 44.540 347.879, 43.615 346.935, 42.707 345.114 C 41.243 342.180, 41.225 341.633, 42.545 340.312 C 43.865 338.992, 44.251 339.089, 45.932 341.161 C 46.975 342.447, 48.146 343.183, 48.534 342.797 C 49.907 341.429, 48.014 337.327, 45.477 336.171 C 42.262 334.707, 41.690 334.710, 40.200 336.200 M 42.390 377.427 C 41.378 380.064, 42.481 383.285, 45.049 385.195 C 49.297 388.354, 52.331 386.004, 51.195 380.437 L 50.595 377.500 50.039 380.500 C 49.592 382.907, 48.956 383.520, 46.818 383.600 C 44.936 383.670, 43.999 383.106, 43.626 381.676 C 42.903 378.914, 43.875 377.651, 45.613 379.094 C 47.673 380.803, 48.406 379.549, 46.476 377.619 C 44.478 375.621, 43.107 375.557, 42.390 377.427 M 51.355 389.850 C 49.262 390.484, 49.281 390.564, 52.113 393.142 C 53.709 394.595, 55.264 395.383, 55.567 394.892 C 55.870 394.401, 57.026 394, 58.136 394 C 59.905 394, 59.788 393.692, 57.182 391.500 C 55.548 390.125, 54.051 389.045, 53.856 389.100 C 53.660 389.155, 52.535 389.492, 51.355 389.850 M 42.032 398.128 C 41.989 400.333, 44.614 402.362, 46.551 401.619 C 48.326 400.938, 47.461 398.677, 45.658 399.285 C 45.021 399.500, 43.952 398.961, 43.282 398.088 C 42.173 396.642, 42.061 396.646, 42.032 398.128 M 58.571 398.571 C 56.794 400.349, 56.762 400.551, 57.725 404 C 58.421 406.493, 58.425 406.491, 58.966 403.500 C 59.386 401.182, 60.104 400.431, 62.127 400.196 C 65.099 399.851, 66.567 402.167, 65.069 404.836 C 64.205 406.374, 64.084 406.368, 63.462 404.756 C 63.093 403.796, 62.407 403.248, 61.939 403.538 C 60.323 404.537, 62.221 407, 64.607 407 C 66.555 407, 66.997 406.488, 66.985 404.250 C 66.966 400.941, 66.201 399.668, 63.316 398.150 C 60.535 396.686, 60.449 396.693, 58.571 398.571 M 52.109 409.497 C 49.748 414.224, 50.019 416.292, 52.935 415.798 C 53.902 415.634, 55.397 416.084, 56.257 416.799 C 58.887 418.981, 59.166 416.496, 56.930 410.823 C 55.777 407.895, 54.723 405.391, 54.590 405.257 C 54.457 405.123, 53.340 407.031, 52.109 409.497" stroke="none" fill="#e6c560" fill-rule="evenodd"/><path d="M 384.500 62.668 C 350.767 65.465, 320.541 72.076, 264 89.023 C 188.114 111.768, 161.555 117.719, 126 119.941 C 87.118 122.370, 50.646 115.196, 18.987 98.889 C 14.319 96.485, 10.161 94.364, 9.747 94.175 C 9.333 93.986, 9.108 167.973, 9.247 258.591 L 9.500 423.350 21 429.116 C 50.413 443.865, 86.167 451.217, 120.500 449.574 C 157.021 447.826, 183.489 442.177, 256 420.652 C 312.025 404.021, 332.516 398.856, 357.655 395.029 C 410.381 387.001, 452.597 392.706, 493.876 413.438 L 503.006 418.023 502.753 253.262 L 502.500 88.500 491.183 82.842 C 460.313 67.409, 419.774 59.743, 384.500 62.668 M 37.570 129.500 C 39.037 133.394, 39.227 139.406, 38.049 144.672 C 37.038 149.187, 37.096 150.487, 38.428 153.156 C 40.417 157.143, 40.413 159.441, 38.409 162.498 C 37.080 164.528, 36.997 165.761, 37.909 170.012 C 39.273 176.372, 39.319 183.685, 38 184.500 C 36.517 185.416, 36.789 187, 38.429 187 C 40.690 187, 43.204 183.888, 42.651 181.772 C 42.285 180.375, 42.551 179.998, 43.613 180.405 C 44.444 180.724, 45.012 180.433, 44.922 179.734 C 44.572 177.013, 45.100 176.125, 47.250 175.820 C 48.956 175.577, 49.574 174.740, 49.805 172.358 C 50.050 169.835, 49.529 168.801, 47.160 167.114 C 44.674 165.344, 44.119 165.248, 43.636 166.506 C 42.818 168.638, 43.930 170.964, 45.482 170.369 C 46.205 170.091, 47.097 170.348, 47.462 170.939 C 48.474 172.576, 45.186 173.399, 43.436 171.947 C 42.504 171.174, 42.017 169.454, 42.199 167.585 C 42.569 163.798, 45.558 163.012, 48.997 165.797 C 52.991 169.030, 52.073 172.481, 43.167 187.715 C 37.545 197.331, 35 202.683, 35 204.892 C 35 208.669, 37.279 213.481, 39.750 214.920 C 41.342 215.847, 41.348 215.942, 39.821 215.970 C 37.161 216.018, 35 218.865, 35 222.322 C 35 224.070, 38.408 233.825, 42.573 244 C 46.739 254.175, 50.549 263.795, 51.040 265.378 C 52.137 268.911, 50.703 272, 47.965 272 C 45.757 272, 41.983 268.661, 42.032 266.750 C 42.051 265.987, 42.581 266.181, 43.392 267.250 C 44.123 268.212, 45.908 269, 47.360 269 C 49.620 269, 50 268.573, 50 266.034 C 50 264.079, 48.964 262.009, 46.957 259.956 C 44.856 257.807, 44.103 256.249, 44.525 254.922 C 44.946 253.595, 44.659 253, 43.599 253 C 42.669 253, 42.282 252.429, 42.619 251.552 C 43.230 249.959, 40.276 244.320, 38.467 243.626 C 37.627 243.303, 37.601 244.211, 38.369 247.086 C 39.106 249.851, 39.076 252.927, 38.264 257.667 C 37.294 263.332, 37.361 264.895, 38.704 267.925 C 40.755 272.551, 40.766 273.965, 38.776 277 C 37.346 279.181, 37.282 280.494, 38.273 287.289 C 39.112 293.041, 39.117 295.851, 38.292 298.039 C 37.324 300.603, 37.403 301, 38.887 301 C 41.133 301, 43 299.067, 43 296.741 C 43 295.636, 43.449 295.160, 44.107 295.566 C 44.852 296.027, 44.994 295.556, 44.540 294.126 C 44.007 292.447, 44.410 291.795, 46.458 291.016 C 47.885 290.474, 49.313 289.347, 49.633 288.513 C 50.634 285.906, 49.154 282.391, 46.560 281.209 C 43.712 279.912, 42.848 280.701, 43.670 283.848 C 44.104 285.504, 44.560 285.780, 45.533 284.973 C 46.429 284.229, 47.020 284.223, 47.470 284.951 C 48.206 286.143, 47.318 288, 46.012 288 C 42.641 288, 40.454 279.807, 43.512 278.634 C 45.882 277.724, 49.752 279.988, 51.007 283.016 C 52.313 286.170, 51.526 287.991, 41.084 305.984 C 33.626 318.836, 33.185 322.385, 38.400 327.600 C 41.539 330.739, 41.631 331, 39.600 331 C 32.903 331, 33.508 336.782, 42.473 358.466 C 46.559 368.348, 49.811 376.521, 49.700 376.630 C 49.590 376.739, 48.431 375.961, 47.125 374.902 C 45.777 373.810, 44.750 371.901, 44.750 370.488 C 44.750 369.120, 44.194 368, 43.514 368 C 42.751 368, 42.452 367.089, 42.732 365.620 C 43.057 363.924, 42.273 362.273, 40.002 359.870 C 37.862 357.607, 37.064 357.157, 37.570 358.500 C 39.032 362.380, 39.229 368.399, 38.063 373.607 C 37.070 378.045, 37.130 379.351, 38.442 381.888 C 40.423 385.719, 40.414 388.439, 38.409 391.498 C 37.080 393.528, 36.997 394.761, 37.909 399.012 C 39.273 405.372, 39.319 412.685, 38 413.500 C 36.060 414.699, 36.991 416.138, 39.250 415.433 C 42.077 414.550, 43.151 413.018, 42.586 410.671 C 42.275 409.380, 42.578 409.008, 43.613 409.405 C 44.444 409.724, 45.012 409.433, 44.922 408.734 C 44.572 406.013, 45.100 405.125, 47.250 404.820 C 48.956 404.577, 49.574 403.740, 49.805 401.358 C 50.051 398.831, 49.529 397.801, 47.141 396.100 C 44.990 394.568, 44.048 394.332, 43.723 395.243 C 43.476 395.934, 42.905 396.155, 42.454 395.733 C 42.002 395.312, 42.164 394.436, 42.812 393.788 C 44.605 391.995, 49.256 394.047, 50.827 397.325 C 52.035 399.845, 51.872 400.698, 49.079 406.489 C 47.386 410.001, 46 413.352, 46 413.937 C 46 416.039, 50.059 419, 52.941 419 C 54.559 419, 56.160 419.450, 56.500 420 C 57.490 421.601, 62.004 421.153, 62.682 419.387 C 63.022 418.499, 62.338 415.494, 61.162 412.709 C 59.985 409.924, 59.130 407.538, 59.261 407.408 C 60.176 406.504, 64.250 411.487, 64.250 413.512 C 64.250 414.880, 64.827 416, 65.531 416 C 66.270 416, 66.615 416.758, 66.345 417.788 C 66.088 418.771, 66.838 420.796, 68.012 422.288 C 70.495 425.445, 72.598 425.986, 71.035 423.066 C 69.686 420.544, 69.716 414.012, 71.103 408.503 C 72.011 404.897, 71.923 403.552, 70.603 400.907 C 68.607 396.906, 68.593 395.123, 70.526 391.248 C 71.729 388.837, 71.840 387.268, 71.051 383.844 C 69.742 378.170, 69.735 371.363, 71.035 368.934 C 71.826 367.456, 71.745 367, 70.690 367 C 68.851 367, 66 370.239, 66 372.329 C 66 373.248, 65.564 374, 65.031 374 C 64.499 374, 64.269 374.563, 64.521 375.250 C 65.165 377.008, 63.853 378.702, 61.500 379.148 C 58.340 379.747, 58.701 386.042, 61.989 387.682 C 64.961 389.163, 66.150 388.289, 65.345 385.212 C 64.900 383.508, 64.441 383.219, 63.467 384.027 C 62.565 384.776, 61.982 384.780, 61.526 384.041 C 60.539 382.446, 63.812 381.599, 65.513 383.011 C 67.734 384.854, 67.425 389.730, 65.038 390.488 C 60.946 391.787, 56.264 386.899, 57.589 382.712 C 57.975 381.496, 61.823 373.975, 66.142 366 C 75.248 349.186, 75.921 345.767, 71.077 340.923 C 69.469 339.315, 68.569 338, 69.077 338 C 71.182 338, 74 333.844, 73.992 330.750 C 73.988 328.918, 70.670 319.866, 66.385 310 C 57.359 289.215, 56.742 287.350, 58.068 284.872 C 60.211 280.868, 67 284.073, 67 289.088 C 67 292.646, 64.543 293.972, 62.232 291.661 C 60.309 289.737, 61.324 288.194, 63.387 289.906 C 65.117 291.342, 66.098 290.089, 65.383 287.357 C 64.976 285.801, 64.223 285.460, 61.931 285.797 C 59.475 286.157, 59 286.689, 59 289.079 C 59 290.913, 60.095 293.051, 62.067 295.069 C 63.754 296.795, 64.893 298.835, 64.599 299.603 C 64.284 300.423, 64.694 301, 65.590 301 C 66.431 301, 66.823 301.477, 66.463 302.060 C 65.495 303.626, 67.742 308.358, 70.174 309.877 C 72.084 311.070, 72.212 311.018, 71.493 309.349 C 69.969 305.815, 69.772 300.834, 70.926 294.968 C 71.937 289.834, 71.862 288.643, 70.351 285.785 C 68.155 281.629, 68.156 280.147, 70.358 276.826 C 71.928 274.457, 71.996 273.466, 70.948 268.142 C 69.792 262.264, 69.961 257.182, 71.427 253.823 C 72.012 252.480, 71.738 252.256, 70.047 252.698 C 67.534 253.355, 65.611 256.544, 66.434 258.689 C 66.859 259.797, 66.572 260.050, 65.400 259.600 C 64.296 259.177, 63.943 259.410, 64.296 260.329 C 64.924 261.965, 64.155 263.139, 61.500 264.601 C 60.317 265.252, 59.374 266.965, 59.191 268.795 C 58.932 271.380, 59.384 272.147, 61.941 273.469 C 63.670 274.363, 65 274.605, 65 274.026 C 65 273.462, 65.450 273, 66 273 C 67.556 273, 67.176 274.995, 65.498 275.639 C 62.845 276.657, 59.378 275.124, 58.128 272.382 C 56.795 269.456, 57.960 266.624, 68.952 246.054 C 75.428 233.936, 75.483 228.626, 69.174 224.712 C 66.747 223.206, 66.693 223.051, 68.595 223.027 C 71.584 222.989, 74 219.881, 74 216.074 C 74 214.190, 70.822 205.574, 66.499 195.737 C 62.374 186.349, 59.112 178.556, 59.249 178.420 C 60.173 177.506, 64.250 182.473, 64.250 184.512 C 64.250 185.880, 64.827 187, 65.531 187 C 66.270 187, 66.615 187.758, 66.345 188.788 C 66.088 189.771, 66.838 191.796, 68.012 193.288 C 70.495 196.445, 72.598 196.986, 71.035 194.066 C 69.686 191.544, 69.716 185.012, 71.103 179.503 C 72.011 175.897, 71.923 174.552, 70.603 171.907 C 68.607 167.906, 68.593 166.123, 70.526 162.248 C 71.729 159.837, 71.840 158.268, 71.051 154.844 C 69.742 149.170, 69.735 142.363, 71.035 139.934 C 71.826 138.456, 71.745 138, 70.690 138 C 68.851 138, 66 141.239, 66 143.329 C 66 144.248, 65.564 145, 65.031 145 C 64.499 145, 64.269 145.563, 64.521 146.250 C 65.166 148.009, 63.851 149.703, 61.500 150.143 C 60.093 150.406, 59.409 151.445, 59.195 153.651 C 58.950 156.165, 59.473 157.201, 61.840 158.886 C 65.092 161.202, 66.378 160.160, 65.309 156.075 C 64.892 154.481, 64.438 154.222, 63.467 155.027 C 62.565 155.776, 61.982 155.780, 61.526 155.041 C 60.539 153.446, 63.812 152.599, 65.513 154.011 C 66.331 154.689, 67 156.509, 67 158.055 C 67 161.603, 63.906 162.824, 60.527 160.610 C 56.640 158.063, 56.526 155.550, 59.971 148.407 C 61.894 144.419, 62.866 141.152, 62.485 139.953 C 61.764 137.681, 58.672 135.789, 56.211 136.112 C 55.270 136.236, 53.291 135.752, 51.814 135.037 C 48.613 133.488, 45.992 134.249, 46.022 136.719 C 46.034 137.698, 46.942 140.480, 48.040 142.899 C 49.137 145.318, 49.915 147.417, 49.768 147.563 C 48.831 148.490, 44.750 143.549, 44.750 141.488 C 44.750 140.120, 44.194 139, 43.514 139 C 42.751 139, 42.452 138.089, 42.732 136.620 C 43.057 134.924, 42.273 133.273, 40.002 130.870 C 37.862 128.607, 37.064 128.157, 37.570 129.500 M 50.543 140.250 C 50.916 141.488, 51.996 144.300, 52.944 146.500 L 54.667 150.500 56.903 146.153 C 59.408 141.284, 59.072 138.525, 56.089 139.472 C 55.033 139.807, 53.879 139.613, 53.525 139.041 C 53.171 138.468, 52.203 138, 51.374 138 C 50.275 138, 50.049 138.612, 50.543 140.250 M 42.390 148.427 C 41.378 151.064, 42.481 154.285, 45.049 156.195 C 49.297 159.354, 52.331 157.004, 51.195 151.437 L 50.595 148.500 50.043 151.500 C 49.617 153.814, 48.893 154.569, 46.876 154.804 C 44.877 155.036, 44.124 154.583, 43.679 152.880 C 42.909 149.936, 43.828 148.612, 45.613 150.094 C 47.673 151.803, 48.406 150.549, 46.476 148.619 C 44.478 146.621, 43.107 146.557, 42.390 148.427 M 51.355 160.850 C 49.262 161.484, 49.281 161.564, 52.113 164.142 C 53.709 165.595, 55.264 166.383, 55.567 165.892 C 55.870 165.401, 57.026 165, 58.136 165 C 59.905 165, 59.788 164.692, 57.182 162.500 C 55.548 161.125, 54.051 160.045, 53.856 160.100 C 53.660 160.155, 52.535 160.492, 51.355 160.850 M 265.710 167.442 C 262.628 174.946, 262.329 177.805, 264.537 178.653 C 267.651 179.848, 270.005 176.111, 269.930 170.095 C 269.810 160.596, 268.786 159.952, 265.710 167.442 M 278.656 164.754 C 271.965 175.352, 271.050 179, 275.084 179 C 277.815 179, 279.704 175.369, 280.808 168 C 281.343 164.425, 281.637 161.345, 281.462 161.156 C 281.288 160.966, 280.024 162.585, 278.656 164.754 M 253.740 171.143 C 252.878 175.071, 252.407 178.896, 252.693 179.643 C 253.503 181.754, 256.796 181.241, 258.428 178.750 C 259.731 176.761, 259.720 175.774, 258.328 170.250 C 257.462 166.812, 256.428 164, 256.030 164 C 255.633 164, 254.602 167.214, 253.740 171.143 M 287.123 170.044 C 281.817 176.394, 280.393 181.014, 283.750 180.985 C 284.712 180.976, 286.059 180.614, 286.743 180.180 C 287.995 179.385, 293.320 164.986, 292.621 164.288 C 292.415 164.081, 289.941 166.672, 287.123 170.044 M 58.606 169.882 C 57.361 171.258, 57.106 172.537, 57.658 174.632 L 58.412 177.500 58.961 174.500 C 59.384 172.184, 60.106 171.431, 62.127 171.196 C 65.099 170.851, 66.567 173.167, 65.069 175.836 C 64.205 177.374, 64.084 177.368, 63.462 175.756 C 63.093 174.796, 62.407 174.248, 61.939 174.538 C 60.323 175.537, 62.221 178, 64.607 178 C 66.555 178, 66.997 177.488, 66.985 175.250 C 66.966 171.941, 66.201 170.668, 63.316 169.150 C 60.521 167.679, 60.614 167.664, 58.606 169.882 M 242.607 170.582 C 242.273 171.452, 242 174.841, 242 178.113 C 242 182.699, 242.375 184.207, 243.636 184.691 C 245.820 185.529, 248.427 183.785, 248.809 181.231 C 249.076 179.440, 244.622 169, 243.590 169 C 243.383 169, 242.941 169.712, 242.607 170.582 M 296.213 174.626 C 291.745 178.605, 290 180.858, 290 182.646 C 290 184.757, 290.406 185.085, 292.691 184.816 C 294.891 184.558, 296.095 183.170, 299.303 177.196 C 301.460 173.178, 303.045 169.711, 302.825 169.492 C 302.605 169.272, 299.629 171.582, 296.213 174.626 M 230.655 179.576 C 232.005 188.627, 232.617 190.495, 234.342 190.827 C 235.307 191.013, 236.749 190.623, 237.548 189.960 C 240.136 187.813, 239.149 184.562, 234.535 180.034 L 230.069 175.651 230.655 179.576 M 46.617 190.787 C 39.078 204.532, 38.413 206.306, 39.621 209.455 C 40.433 211.570, 45.766 214.304, 47.660 213.577 C 49.569 212.844, 49.004 208.500, 47 208.500 C 46.175 208.500, 45.622 209.175, 45.771 210 C 45.921 210.825, 44.709 209.925, 43.079 208 C 40.885 205.410, 40.490 204.416, 41.558 204.177 C 42.351 203.999, 43 203.211, 43 202.427 C 43 200.569, 44.626 200.584, 45.342 202.448 C 45.647 203.244, 47.270 204.606, 48.949 205.473 L 52 207.051 52 202.504 C 52 198.612, 51.636 197.791, 49.474 196.806 C 46.588 195.491, 46.694 193.643, 49.680 193.200 C 51.177 192.978, 51.593 192.321, 51.278 190.672 C 51.015 189.296, 51.617 187.752, 52.854 186.632 C 54.807 184.865, 54.896 184.898, 56.488 187.977 C 57.386 189.714, 57.968 191.892, 57.782 192.817 C 57.595 193.743, 58.468 195.320, 59.721 196.323 C 62.621 198.642, 62.633 200.043, 59.750 199.738 C 57.735 199.525, 57.468 199.996, 57.195 204.250 C 56.898 208.879, 56.963 209, 59.745 209 C 61.315 209, 63.073 208.527, 63.651 207.949 C 64.386 207.214, 65.201 207.658, 66.360 209.427 C 67.904 211.783, 67.904 212.090, 66.355 213.899 C 64.713 215.816, 64.669 215.813, 62.932 213.670 C 60.811 211.055, 59.521 211.954, 60.395 215.438 C 61.556 220.063, 69.089 220.018, 69.789 215.382 C 70.016 213.875, 55.953 178.619, 54.574 177.241 C 54.387 177.054, 50.806 183.149, 46.617 190.787 M 305.477 180.176 C 298.954 184.182, 296 186.953, 296 189.067 C 296 191.630, 298.991 192.314, 301.278 190.274 C 303.797 188.027, 311.299 177.965, 310.816 177.482 C 310.616 177.283, 308.214 178.495, 305.477 180.176 M 219.032 186.221 C 219.084 188.298, 224.400 198.390, 225.634 198.754 C 227.411 199.279, 230.139 195.969, 229.803 193.694 C 229.463 191.384, 218.979 184.110, 219.032 186.221 M 254.942 187.287 C 245.137 190.630, 237.593 195.639, 229.641 204.087 C 218 216.455, 212.357 230.501, 213.215 244.975 C 214.230 262.100, 224.670 273.253, 241.079 274.741 C 263.808 276.802, 290.778 254.944, 297.518 229 C 299.751 220.405, 299.136 209.379, 296.024 202.221 C 293.204 195.736, 285.786 188.797, 279.316 186.592 C 272.653 184.322, 262.818 184.602, 254.942 187.287 M 309.086 189.869 C 302.308 192.727, 300.280 194.682, 301.309 197.364 C 302.460 200.362, 305.506 199.057, 311.500 193 C 314.766 189.700, 317.001 187.037, 316.469 187.082 C 315.936 187.127, 312.613 188.382, 309.086 189.869 M 209.025 196.780 C 209.038 197.176, 210.618 199.637, 212.535 202.250 C 216.113 207.127, 218.782 208.172, 220.960 205.548 C 223.335 202.686, 221.674 200.578, 215.237 198.283 C 211.807 197.060, 209.011 196.384, 209.025 196.780 M 313.711 199.569 C 306.178 201.394, 304 202.627, 304 205.067 C 304 209.745, 309.629 208.261, 317.500 201.507 C 321.974 197.668, 321.840 197.600, 313.711 199.569 M 205 212.956 C 210.241 217.660, 213.520 218.148, 215.194 214.473 C 216.877 210.781, 215.159 209.653, 207.247 209.256 L 200.500 208.918 205 212.956 M 306.040 212.452 C 304.415 214.410, 305.113 217.398, 307.293 217.818 C 309.035 218.153, 322 212.630, 322 211.553 C 322 211.249, 318.680 211, 314.622 211 C 309.393 211, 306.894 211.423, 306.040 212.452 M 342.889 214.712 C 342.070 215.696, 340.599 219.633, 339.620 223.463 C 338.642 227.292, 337.272 231.510, 336.578 232.836 C 335.458 234.974, 335.367 234.615, 335.778 229.659 C 336.752 217.915, 333.681 218.633, 330.043 231 C 321.436 260.258, 297.431 286.985, 266.634 301.599 C 259.633 304.922, 258.190 306.110, 253.496 312.416 C 247.681 320.229, 244.832 323.050, 237.743 328.017 C 235.126 329.850, 231.863 333.264, 230.493 335.603 C 227.605 340.531, 227.161 342.941, 229.500 341 C 230.325 340.315, 231 340.010, 231 340.323 C 231 340.635, 233.422 339.819, 236.383 338.509 C 241.520 336.238, 250.438 333.375, 259.851 330.977 C 262.244 330.367, 264.033 329.699, 263.826 329.493 C 263.619 329.286, 259.338 330.131, 254.313 331.371 L 245.176 333.625 245.401 331.520 C 245.524 330.363, 246.020 328.777, 246.502 327.997 C 247.791 325.911, 239.810 330.827, 238.218 333.099 C 236.849 335.054, 233.359 335.846, 234.541 333.933 C 234.904 333.347, 235.381 333.048, 235.603 333.269 C 236.075 333.742, 245.341 325.419, 255.399 315.489 C 261.631 309.336, 263.851 307.897, 273.538 303.736 C 282.527 299.875, 285.141 298.260, 287.617 295.038 C 290.530 291.249, 302.366 280.772, 307.637 277.318 C 309.018 276.414, 311.754 273.159, 313.717 270.087 C 319.455 261.105, 323.719 256.427, 328.458 253.913 C 330.898 252.619, 333.169 251.835, 333.505 252.172 C 333.842 252.508, 333.428 254.434, 332.585 256.451 C 331.109 259.984, 331.125 260.095, 333.026 259.492 C 335.641 258.662, 335.626 260.935, 332.994 264.280 C 331.539 266.130, 331.333 266.956, 332.244 267.290 C 333.011 267.571, 331.843 269.194, 329.243 271.459 C 326.901 273.499, 325.196 275.509, 325.454 275.925 C 325.711 276.341, 324.577 277.676, 322.933 278.891 C 321.289 280.107, 320.186 281.492, 320.482 281.970 C 320.777 282.449, 319.890 283.728, 318.510 284.814 C 317.129 285.900, 316 287.480, 316 288.327 C 316 289.173, 315.100 290.151, 314 290.500 C 312.900 290.849, 312 291.947, 312 292.940 C 312 295.061, 304.687 302.074, 299.864 304.576 C 298.014 305.537, 297.052 306.509, 297.727 306.737 C 299.480 307.329, 310.711 301.444, 315.885 297.222 C 320.051 293.823, 320.161 293.604, 318.071 292.831 C 315.022 291.703, 316.170 290.436, 322 288.500 C 327.486 286.678, 330.044 284.376, 325.649 285.216 C 322.096 285.896, 322.310 285.325, 326.250 283.620 C 328.038 282.846, 330.400 281.498, 331.500 280.624 C 333.407 279.109, 333.337 279.062, 330 279.608 C 326.701 280.148, 326.860 279.948, 332.750 276.116 C 336.188 273.880, 339 271.779, 339 271.446 C 339 271.113, 337.540 271.162, 335.756 271.554 L 332.513 272.266 337.506 267.673 C 340.253 265.146, 342.816 263.062, 343.202 263.040 C 344.230 262.982, 350.282 253.949, 349.689 253.356 C 349.413 253.079, 347.277 254.236, 344.943 255.926 C 338.199 260.812, 338.268 259.550, 345.172 251.750 C 353.547 242.288, 356 239.030, 356 237.365 C 356 234.610, 353.479 236.156, 347.216 242.750 C 343.685 246.467, 341.610 248.152, 342.598 246.500 C 343.584 244.850, 346.553 240.020, 349.196 235.768 C 354.093 227.885, 355.186 224, 352.506 224 C 351.110 224, 349.941 225.439, 342.686 236.079 C 341.139 238.349, 339.692 240.025, 339.471 239.804 C 339.250 239.584, 340.191 236.626, 341.562 233.232 C 344.811 225.190, 346.508 216.730, 345.304 214.578 C 344.452 213.056, 344.260 213.066, 342.889 214.712 M 52.496 216.627 C 51.463 217.382, 49.850 218, 48.912 218 C 47.647 218, 48.149 218.976, 50.853 221.773 C 53.943 224.970, 54.741 225.351, 56.079 224.273 C 56.947 223.573, 58.410 223, 59.329 223 C 61.576 223, 61.504 222.814, 57.687 218.767 C 54.722 215.623, 54.176 215.398, 52.496 216.627 M 199.750 220.713 C 197.137 220.931, 195 221.470, 195 221.911 C 195 222.352, 197.587 223.883, 200.748 225.313 C 205.721 227.563, 206.767 227.735, 208.498 226.585 C 209.599 225.854, 210.500 224.186, 210.500 222.878 C 210.500 220.258, 208.950 219.946, 199.750 220.713 M 39.667 221.667 C 39.300 222.033, 39 223.383, 39 224.667 C 39 227.348, 42.403 227.998, 43.362 225.500 C 43.940 223.992, 46.103 223.349, 45.882 224.750 C 45.556 226.813, 46.147 228, 47.500 228 C 49.780 228, 49.291 224.317, 46.777 222.557 C 44.485 220.951, 40.839 220.494, 39.667 221.667 M 306.022 222.697 C 303.658 224.353, 303.346 227.812, 305.486 228.633 C 306.303 228.947, 310.223 228.216, 314.196 227.009 C 322.160 224.590, 322.011 223.819, 313.272 222.231 C 309.185 221.488, 307.602 221.590, 306.022 222.697 M 60.667 227.667 C 60.300 228.033, 60 229.158, 60 230.167 C 60 232.178, 61.995 232.605, 63.651 230.949 C 64.386 230.214, 65.245 230.725, 66.505 232.648 C 67.731 234.520, 67.938 235.521, 67.153 235.782 C 66.519 235.994, 66 236.804, 66 237.583 C 66 238.363, 65.550 239, 65 239 C 64.450 239, 64 238.594, 64 238.099 C 64 237.603, 62.402 236.254, 60.448 235.102 L 56.896 233.006 57.198 238.253 C 57.461 242.824, 57.790 243.541, 59.750 243.820 C 62.710 244.240, 62.643 246.801, 59.652 247.551 C 57.882 247.995, 57.408 248.684, 57.726 250.348 C 57.985 251.702, 57.374 253.256, 56.146 254.368 C 54.193 256.136, 54.104 256.102, 52.486 252.973 C 51.574 251.209, 51.044 248.940, 51.308 247.929 C 51.618 246.744, 50.939 245.535, 49.394 244.523 C 46.171 242.411, 46.235 240.131, 49.500 240.755 C 51.867 241.208, 52 240.994, 52 236.730 C 52 232.461, 51.839 232.203, 48.907 231.773 C 46.851 231.471, 45.635 231.787, 45.280 232.714 C 44.911 233.675, 44.146 233.124, 42.818 230.942 C 38.852 224.419, 40.203 229.192, 47.106 246.087 C 51.019 255.664, 54.311 263.602, 54.421 263.727 C 54.980 264.362, 70 234.761, 70 233.026 C 70 229.042, 63.197 225.136, 60.667 227.667 M 197.310 232.848 C 194.455 233.757, 191.832 234.798, 191.481 235.163 C 190.662 236.011, 201.298 238.243, 204.144 237.820 C 208.696 237.143, 209.288 230.904, 204.781 231.098 C 203.527 231.152, 200.164 231.939, 197.310 232.848 M 302.571 233.571 C 300.694 235.449, 300.491 238.949, 302.250 239.124 C 305.235 239.420, 314.559 238.729, 316.309 238.081 C 317.846 237.513, 317.042 236.843, 312.237 234.687 C 305.252 231.552, 304.659 231.484, 302.571 233.571 M 196 245 L 188.500 248.901 196.095 248.951 C 202.225 248.990, 204.009 248.647, 205.345 247.171 C 207.436 244.861, 207.468 242.394, 205.418 241.607 C 203.509 240.874, 204.884 240.379, 196 245 M 298.108 243.637 C 296.731 244.601, 296.003 246.010, 296.193 247.340 C 296.532 249.714, 299.471 250.683, 306.937 250.882 L 311.374 251 308.732 248.242 C 307.279 246.725, 304.794 244.719, 303.209 243.783 C 300.589 242.235, 300.129 242.221, 298.108 243.637 M 197.401 256 C 190.009 261.389, 190.471 262.129, 199.807 259.859 C 205.130 258.565, 208 256.496, 208 253.952 C 208 252.559, 206.177 251, 204.548 251 C 204.389 251, 201.173 253.250, 197.401 256 M 291.750 253.080 C 290.788 253.641, 290 255.225, 290 256.601 C 290 259.261, 292.950 261.013, 299.945 262.508 L 303.390 263.245 301.566 260.372 C 299.469 257.071, 294.895 251.985, 294.063 252.030 C 293.753 252.047, 292.712 252.519, 291.750 253.080 M 166.405 262.520 C 165.560 265.890, 167.422 272.912, 171.087 280.173 C 173.677 285.304, 173.822 285.975, 172.142 285.076 C 171.071 284.503, 168.723 282.114, 166.924 279.767 C 162.735 274.302, 161.139 273.009, 159.403 273.676 C 156.010 274.978, 158.996 280.818, 167.876 290.250 C 172.975 295.667, 169.269 294.778, 162.022 288.847 C 157.985 285.542, 156 285.225, 156 287.884 C 156 289.980, 161.041 294.868, 168.487 299.991 C 173.862 303.689, 173.138 305.026, 166.879 302.960 C 164.740 302.254, 162.698 301.969, 162.341 302.325 C 161.230 303.436, 168.653 309.659, 173.436 311.626 C 178.501 313.709, 179.291 315, 175.500 315 C 170.960 315, 172.900 316.837, 178.750 318.077 C 184.462 319.288, 184.481 319.304, 181.633 320.496 C 179.287 321.478, 179.074 321.815, 180.465 322.348 C 181.399 322.707, 183.589 323.016, 185.332 323.035 L 188.500 323.071 186 324.593 C 183.616 326.045, 183.758 326.090, 189.093 325.567 C 195.580 324.932, 197.022 325.720, 193.807 328.146 L 191.523 329.868 194.512 331.100 C 198.564 332.771, 213.520 332.880, 215.150 331.250 C 216.150 330.250, 215.454 330, 211.668 330 C 205.476 330, 200 327.721, 200 325.145 C 200 323.680, 199.497 323.319, 198 323.710 C 196.636 324.067, 196 323.741, 196 322.684 C 196 321.832, 195.100 320.849, 194 320.500 C 192.900 320.151, 192 319.256, 192 318.512 C 192 317.768, 190.646 316.862, 188.991 316.498 C 187.336 316.135, 186.235 315.428, 186.545 314.928 C 186.854 314.428, 185.395 313.240, 183.303 312.289 C 178.305 310.016, 178.325 310.036, 180.029 308.974 C 181.258 308.207, 181.130 307.796, 179.250 306.471 C 176.450 304.499, 176.325 302, 179.026 302 C 180.947 302, 180.973 301.848, 179.526 299.050 C 177.254 294.656, 177.596 294, 182.162 294 C 187.249 294, 193.643 297.530, 197.892 302.685 C 200.622 305.997, 201.923 306.610, 210.715 308.724 C 216.174 310.037, 222.054 312.154, 224.015 313.512 L 227.529 315.946 238.515 314.391 C 247.053 313.182, 249.890 312.384, 251.250 310.807 C 253.780 307.875, 253.429 306.672, 250.250 307.372 C 242.994 308.970, 231.101 309.081, 223.073 307.627 C 202.707 303.937, 187.965 290.809, 181.637 270.727 C 180.121 265.914, 179.067 264.037, 178.001 264.251 C 176.823 264.488, 176.515 266.126, 176.567 271.852 C 176.625 278.133, 176.467 278.826, 175.433 276.825 C 174.772 275.546, 173.418 271.800, 172.424 268.500 C 169.770 259.690, 167.646 257.580, 166.405 262.520 M 200.510 266.140 C 196.900 269.517, 194.133 272.466, 194.360 272.694 C 195.028 273.361, 207.169 268.157, 209.170 266.346 C 212.062 263.729, 211.054 260, 207.455 260 C 207.245 260, 204.120 262.763, 200.510 266.140 M 283.046 262.445 C 280.816 265.132, 282.303 268.222, 287.301 271.287 C 289.941 272.907, 292.344 273.989, 292.641 273.692 C 292.938 273.395, 291.954 270.418, 290.454 267.076 C 287.654 260.838, 285.498 259.490, 283.046 262.445 M 42 263.500 C 42 264.325, 42.450 265, 43 265 C 43.550 265, 44 264.464, 44 263.809 C 44 263.154, 44.638 263.491, 45.418 264.557 C 46.198 265.624, 47.162 266.171, 47.561 265.773 C 48.647 264.686, 46.025 262, 43.878 262 C 42.845 262, 42 262.675, 42 263.500 M 61.667 267.667 C 60.394 268.940, 61.010 270.145, 62.750 269.787 C 63.712 269.589, 65.048 270.119, 65.718 270.964 C 66.813 272.344, 66.940 272.343, 66.968 270.950 C 67.026 268.123, 63.435 265.899, 61.667 267.667 M 209.405 270.680 C 206.150 274.172, 200.681 282.014, 201.164 282.498 C 201.361 282.694, 204.667 280.750, 208.511 278.177 C 214.035 274.480, 215.500 272.979, 215.500 271.014 C 215.500 267.460, 212.557 267.299, 209.405 270.680 M 273.644 271.098 C 271.776 273.764, 272.374 275.078, 277.885 280.418 L 281.929 284.336 281.345 280.418 C 279.905 270.768, 279.451 269.505, 277.306 269.193 C 276.012 269.005, 274.593 269.743, 273.644 271.098 M 52.186 275.400 L 49.945 276.600 52.223 278.727 C 54.141 280.519, 54.845 280.668, 56.692 279.673 L 58.885 278.491 56.656 276.346 C 54.760 274.521, 54.092 274.380, 52.186 275.400 M 217.733 275.092 C 216.236 275.961, 209 288.762, 209 290.540 C 209 290.864, 211.945 288.527, 215.545 285.347 C 220.717 280.778, 222.029 279.049, 221.795 277.109 C 221.453 274.260, 220.218 273.647, 217.733 275.092 M 264.238 276.162 C 262.346 278.054, 262.739 280.750, 265.700 286.190 C 268.217 290.815, 268.457 290.996, 269.244 288.870 C 269.708 287.616, 269.955 284.094, 269.794 281.045 C 269.546 276.369, 269.185 275.455, 267.488 275.212 C 266.382 275.053, 264.919 275.481, 264.238 276.162 M 223.634 281.750 C 221.967 284.986, 218.847 295.180, 219.365 295.698 C 220.227 296.560, 230 283.286, 230 281.254 C 230 277.817, 225.479 278.169, 223.634 281.750 M 253.613 280.876 C 252.022 282.634, 252.019 283.166, 253.579 289.376 C 254.494 293.019, 255.576 296, 255.983 296 C 256.870 296, 260.009 280.826, 259.345 279.750 C 258.489 278.363, 255.324 278.984, 253.613 280.876 M 233.643 282.499 C 232.819 283.324, 231.850 286.587, 231.490 289.749 C 231.130 292.912, 230.618 296.288, 230.351 297.250 C 229.415 300.622, 230.946 298.941, 234.955 292.192 C 239.441 284.641, 240.129 281, 237.071 281 C 236.011 281, 234.468 281.675, 233.643 282.499 M 243.035 282.934 C 241.881 285.091, 241.755 294.523, 242.843 297.278 C 243.365 298.599, 244.248 297.254, 246.273 292.048 C 249.742 283.132, 249.792 281, 246.535 281 C 245.122 281, 243.629 281.825, 243.035 282.934 M 46.616 305.326 C 42.427 312.747, 39 319.780, 39 320.955 C 39 323.944, 43.518 328.208, 46.271 327.817 C 49.323 327.383, 50.049 323, 47.070 323 C 45.931 323, 44.998 323.563, 44.996 324.250 C 44.994 324.938, 44.091 324.022, 42.990 322.215 L 40.987 318.930 42.994 316.777 C 44.591 315.062, 45 314.947, 45 316.213 C 45 317.087, 46.575 318.732, 48.500 319.867 L 52 321.933 52 316.985 C 52 312.542, 51.745 311.974, 49.500 311.411 C 46.212 310.585, 46.227 308, 49.519 308 C 51.632 308, 51.947 307.637, 51.474 305.750 C 51.150 304.454, 51.566 302.652, 52.456 301.500 C 53.988 299.517, 54.019 299.521, 56.078 301.956 C 57.322 303.428, 57.980 305.323, 57.720 306.685 C 57.417 308.272, 57.996 309.423, 59.643 310.502 C 62.835 312.593, 62.748 314.866, 59.500 314.245 C 57.125 313.791, 57 313.998, 57 318.383 C 57 322.971, 57.021 323, 60.417 323 C 62.296 323, 64.066 322.438, 64.349 321.750 C 64.662 320.993, 65.135 321.387, 65.549 322.750 C 65.925 323.988, 66.631 325, 67.117 325 C 68.586 325, 68.112 326.963, 66.130 329.091 L 64.259 331.099 63.723 329.049 C 63.428 327.922, 62.470 327, 61.594 327 C 59.079 327, 59.714 330.767, 62.541 332.619 C 65.772 334.736, 70 333.189, 70 329.890 C 70 327.878, 56.494 294.493, 54.941 292.666 C 54.552 292.208, 50.805 297.905, 46.616 305.326 M 300 311.668 C 293.887 312.635, 284 316.336, 284 317.657 C 284 318.430, 283.325 319.322, 282.500 319.638 C 281.675 319.955, 281 321.035, 281 322.039 C 281 324.857, 276.558 327.391, 263.580 331.977 C 250.781 336.500, 244.743 339.742, 242.978 343.041 C 240.966 346.800, 242.540 347.343, 246.181 344.146 C 250.206 340.612, 251 340.340, 251 342.500 C 251 344.815, 252.771 344.279, 254.662 341.393 C 256.294 338.903, 256.432 338.869, 257.746 340.643 C 259.053 342.407, 259.269 342.336, 262.061 339.234 C 263.917 337.171, 265 336.527, 265 337.484 C 265 339.682, 267.746 339.344, 269.005 336.991 C 269.798 335.510, 270.709 335.140, 272.474 335.583 C 274.227 336.023, 275.212 335.633, 276.152 334.128 C 277.036 332.713, 278.107 332.240, 279.586 332.611 C 281.111 332.994, 282.327 332.400, 283.768 330.568 C 285.016 328.982, 286.390 328.213, 287.332 328.574 C 288.354 328.966, 289.374 328.178, 290.391 326.212 C 291.582 323.908, 292.438 323.361, 294.300 323.717 C 296.991 324.231, 300 321.809, 300 319.129 C 300 317.808, 300.857 317.400, 303.629 317.400 C 307.073 317.400, 311 314.464, 311 311.889 C 311 311.015, 304.904 310.892, 300 311.668 M 53.540 329.935 C 53.136 330.588, 51.674 331.554, 50.291 332.080 L 47.776 333.036 50.329 335.044 C 51.733 336.148, 53.176 337.979, 53.535 339.112 L 54.189 341.171 56.409 339.086 C 57.630 337.938, 59.500 336.988, 60.564 336.973 C 62.212 336.951, 62.112 336.706, 59.894 335.329 C 58.461 334.440, 56.610 332.594, 55.782 331.229 C 54.755 329.537, 54.041 329.125, 53.540 329.935 M 40.200 336.200 C 39.540 336.860, 39 338.146, 39 339.058 C 39 340.528, 53.448 376.781, 54.422 377.756 C 55.133 378.466, 70 349.316, 70 347.213 C 70 342.579, 60.989 339.045, 60.166 343.356 C 59.606 346.297, 61.856 347.877, 63.478 345.681 C 64.762 343.942, 64.850 343.953, 65.478 345.931 C 65.839 347.069, 66.554 348, 67.067 348 C 68.524 348, 68.167 349.782, 66.267 352.001 C 64.748 353.776, 64.465 353.825, 63.967 352.406 C 63.655 351.516, 61.935 350.172, 60.146 349.419 L 56.893 348.051 57.196 352.776 C 57.439 356.557, 57.950 357.697, 59.754 358.489 C 62.411 359.654, 62.185 361.375, 59.320 361.800 C 57.835 362.020, 57.406 362.686, 57.707 364.300 C 57.932 365.510, 57.443 367.400, 56.620 368.500 C 55.218 370.372, 55.013 370.393, 53.421 368.825 C 52.486 367.903, 51.671 365.653, 51.610 363.825 C 51.539 361.678, 50.703 359.854, 49.250 358.677 C 46.274 356.267, 46.392 354.809, 49.500 355.589 C 51.922 356.197, 52 356.058, 52 351.108 L 52 346 48.583 346 C 46.704 346, 44.985 346.546, 44.763 347.212 C 44.540 347.879, 43.615 346.935, 42.707 345.114 C 41.243 342.180, 41.225 341.633, 42.545 340.312 C 43.865 338.992, 44.251 339.089, 45.932 341.161 C 46.975 342.447, 48.146 343.183, 48.534 342.797 C 49.907 341.429, 48.014 337.327, 45.477 336.171 C 42.262 334.707, 41.690 334.710, 40.200 336.200 M 42.390 377.427 C 41.378 380.064, 42.481 383.285, 45.049 385.195 C 49.297 388.354, 52.331 386.004, 51.195 380.437 L 50.595 377.500 50.039 380.500 C 49.592 382.907, 48.956 383.520, 46.818 383.600 C 44.936 383.670, 43.999 383.106, 43.626 381.676 C 42.903 378.914, 43.875 377.651, 45.613 379.094 C 47.673 380.803, 48.406 379.549, 46.476 377.619 C 44.478 375.621, 43.107 375.557, 42.390 377.427 M 51.355 389.850 C 49.262 390.484, 49.281 390.564, 52.113 393.142 C 53.709 394.595, 55.264 395.383, 55.567 394.892 C 55.870 394.401, 57.026 394, 58.136 394 C 59.905 394, 59.788 393.692, 57.182 391.500 C 55.548 390.125, 54.051 389.045, 53.856 389.100 C 53.660 389.155, 52.535 389.492, 51.355 389.850 M 42.032 398.128 C 41.989 400.333, 44.614 402.362, 46.551 401.619 C 48.326 400.938, 47.461 398.677, 45.658 399.285 C 45.021 399.500, 43.952 398.961, 43.282 398.088 C 42.173 396.642, 42.061 396.646, 42.032 398.128 M 58.571 398.571 C 56.794 400.349, 56.762 400.551, 57.725 404 C 58.421 406.493, 58.425 406.491, 58.966 403.500 C 59.386 401.182, 60.104 400.431, 62.127 400.196 C 65.099 399.851, 66.567 402.167, 65.069 404.836 C 64.205 406.374, 64.084 406.368, 63.462 404.756 C 63.093 403.796, 62.407 403.248, 61.939 403.538 C 60.323 404.537, 62.221 407, 64.607 407 C 66.555 407, 66.997 406.488, 66.985 404.250 C 66.966 400.941, 66.201 399.668, 63.316 398.150 C 60.535 396.686, 60.449 396.693, 58.571 398.571 M 52.109 409.497 C 49.748 414.224, 50.019 416.292, 52.935 415.798 C 53.902 415.634, 55.397 416.084, 56.257 416.799 C 58.887 418.981, 59.166 416.496, 56.930 410.823 C 55.777 407.895, 54.723 405.391, 54.590 405.257 C 54.457 405.123, 53.340 407.031, 52.109 409.497" stroke="none" fill="#05b4cb" fill-rule="evenodd"/></svg>